<svg width="12" height="16" viewBox="0 0 12 16" fill="none" xmlns="http://www.w3.org/2000/svg">
<g clip-path="url(#clip0_848_46249)">
<path d="M9.95938 8.39688C9.95312 7.25 10.4719 6.38437 11.5219 5.74687C10.9344 4.90625 10.0469 4.44375 8.875 4.35313C7.76562 4.26562 6.55312 5 6.10938 5C5.64062 5 4.56563 4.38438 3.72187 4.38438C1.97812 4.4125 0.125 5.775 0.125 8.54688C0.125 9.36563 0.275 10.2115 0.575 11.0844C0.975 12.2313 2.41875 15.0437 3.925 14.9969C4.7125 14.9781 5.26875 14.4375 6.29375 14.4375C7.2875 14.4375 7.80312 14.9969 8.68125 14.9969C10.2 14.975 11.5062 12.4187 11.8875 11.2688C9.85 10.3094 9.95938 8.45625 9.95938 8.39688ZM8.19063 3.26562C9.04375 2.25312 8.96562 1.33125 8.94063 1C8.1875 1.04375 7.31562 1.5125 6.81875 2.09063C6.27187 2.70938 5.95 3.475 6.01875 4.3375C6.83438 4.4 7.57812 3.98125 8.19063 3.26562Z" fill="white"/>
</g>
<defs>
<clipPath id="clip0_848_46249">
<path d="M0 0H12V16H0V0Z" fill="white"/>
</clipPath>
</defs>
</svg>

