<svg width="18" height="14" viewBox="0 0 18 14" fill="none" xmlns="http://www.w3.org/2000/svg">
<path d="M1.04688 0.875C1.53086 0.875 1.92188 1.26602 1.92188 1.75V8.75H8.04688V4.375C8.04688 3.89102 8.43789 3.5 8.92188 3.5H15.0469C16.4961 3.5 17.6719 4.67578 17.6719 6.125V12.25C17.6719 12.734 17.2809 13.125 16.7969 13.125C16.3129 13.125 15.9219 12.734 15.9219 12.25V11.375H9.79688H8.92188H1.92188V12.25C1.92188 12.734 1.53086 13.125 1.04688 13.125C0.562891 13.125 0.171875 12.734 0.171875 12.25V1.75C0.171875 1.26602 0.562891 0.875 1.04688 0.875ZM4.98438 3.5C5.56454 3.5 6.12094 3.73047 6.53117 4.1407C6.94141 4.55094 7.17188 5.10734 7.17188 5.6875C7.17188 6.26766 6.94141 6.82406 6.53117 7.2343C6.12094 7.64453 5.56454 7.875 4.98438 7.875C4.40421 7.875 3.84781 7.64453 3.43758 7.2343C3.02734 6.82406 2.79688 6.26766 2.79688 5.6875C2.79688 5.10734 3.02734 4.55094 3.43758 4.1407C3.84781 3.73047 4.40421 3.5 4.98438 3.5Z" fill="#A3A3A3"/>
</svg>

