
<svg width="18" height="14" viewBox="0 0 18 14" fill="none" xmlns="http://www.w3.org/2000/svg">
<path d="M16 1.5C16.275 1.5 16.5 1.725 16.5 2V3H1.5V2C1.5 1.725 1.725 1.5 2 1.5H16ZM16.5 6V12C16.5 12.275 16.275 12.5 16 12.5H2C1.725 12.5 1.5 12.275 1.5 12V6H16.5ZM2 0C0.896875 0 0 0.896875 0 2V12C0 13.1031 0.896875 14 2 14H16C17.1031 14 18 13.1031 18 12V2C18 0.896875 17.1031 0 16 0H2ZM3.75 9.5C3.33437 9.5 3 9.83438 3 10.25C3 10.6656 3.33437 11 3.75 11H5.25C5.66563 11 6 10.6656 6 10.25C6 9.83438 5.66563 9.5 5.25 9.5H3.75ZM7.75 9.5C7.33437 9.5 7 9.83438 7 10.25C7 10.6656 7.33437 11 7.75 11H11.25C11.6656 11 12 10.6656 12 10.25C12 9.83438 11.6656 9.5 11.25 9.5H7.75Z" fill="white"/>
</svg>

