<svg width="24" height="18" viewBox="0 0 24 18" fill="none" xmlns="http://www.w3.org/2000/svg">
<path d="M17.25 5.39719V4.875C17.25 2.52375 13.7034 0.75 9 0.75C4.29656 0.75 0.75 2.52375 0.75 4.875V8.625C0.75 10.5834 3.21094 12.1397 6.75 12.6056V13.125C6.75 15.4762 10.2966 17.25 15 17.25C19.7034 17.25 23.25 15.4762 23.25 13.125V9.375C23.25 7.43437 20.8669 5.87625 17.25 5.39719ZM5.25 10.7691C3.41344 10.2562 2.25 9.41156 2.25 8.625V7.30594C3.015 7.84781 4.03969 8.28469 5.25 8.57812V10.7691ZM12.75 8.57812C13.9603 8.28469 14.985 7.84781 15.75 7.30594V8.625C15.75 9.41156 14.5866 10.2562 12.75 10.7691V8.57812ZM11.25 15.2691C9.41344 14.7562 8.25 13.9116 8.25 13.125V12.7341C8.49656 12.7434 8.74594 12.75 9 12.75C9.36375 12.75 9.71906 12.7378 10.0678 12.7172C10.4552 12.8559 10.8499 12.9736 11.25 13.0697V15.2691ZM11.25 11.0859C10.5051 11.196 9.75302 11.2508 9 11.25C8.24698 11.2508 7.49493 11.196 6.75 11.0859V8.85563C7.49604 8.95283 8.24765 9.00106 9 9C9.75235 9.00106 10.504 8.95283 11.25 8.85563V11.0859ZM17.25 15.5859C15.758 15.8047 14.242 15.8047 12.75 15.5859V13.35C13.4958 13.4503 14.2475 13.5004 15 13.5C15.7523 13.5011 16.504 13.4528 17.25 13.3556V15.5859ZM21.75 13.125C21.75 13.9116 20.5866 14.7562 18.75 15.2691V13.0781C19.9603 12.7847 20.985 12.3478 21.75 11.8059V13.125Z" fill="#E9E1FF"/>
</svg>

