<svg width="227" height="221" viewBox="0 0 227 221" fill="none" xmlns="http://www.w3.org/2000/svg">
<path d="M143.973 49.6992H83.0762C81.6885 49.7008 80.3581 50.2539 79.3768 51.2369C78.3955 52.2199 77.8435 53.5527 77.8418 54.943V190.53L77.1439 190.744L62.2048 195.327C61.4968 195.543 60.7321 195.469 60.0785 195.121C59.425 194.773 58.9359 194.179 58.7188 193.47L14.282 48.0596C14.0657 47.3503 14.1394 46.584 14.4869 45.9292C14.8344 45.2743 15.4271 44.7844 16.135 44.5672L39.156 37.5055L105.895 17.0407L128.916 9.97903C129.266 9.87102 129.634 9.83327 129.999 9.86796C130.364 9.90264 130.719 10.0091 131.042 10.1812C131.366 10.3533 131.653 10.5876 131.886 10.8709C132.12 11.1541 132.295 11.4807 132.402 11.8318L143.761 49L143.973 49.6992Z" fill="#241540"/>
<path d="M157.262 49.0002L143.573 4.20403C143.345 3.45764 142.973 2.76353 142.477 2.16136C141.981 1.55918 141.372 1.06076 140.684 0.694548C139.996 0.32834 139.243 0.10153 138.467 0.0270854C137.692 -0.0473588 136.909 0.0320222 136.164 0.260684L103.798 10.1855L37.0629 30.6538L4.69669 40.5821C3.19313 41.0446 1.93418 42.0859 1.19617 43.4773C0.458167 44.8688 0.301404 46.4967 0.7603 48.0038L47.5491 201.099C47.9218 202.315 48.674 203.38 49.6953 204.137C50.7165 204.894 51.9529 205.303 53.2233 205.304C53.8112 205.304 54.3958 205.216 54.9575 205.042L77.1445 198.239L77.8424 198.022V197.292L77.1445 197.505L54.7517 204.374C53.4245 204.78 51.9911 204.641 50.7658 203.989C49.5405 203.337 48.6234 202.224 48.2156 200.896L1.43045 47.7976C1.22843 47.1393 1.15802 46.4475 1.22325 45.7619C1.28848 45.0763 1.48806 44.4103 1.81058 43.8021C2.1331 43.1939 2.57222 42.6554 3.10278 42.2174C3.63333 41.7795 4.24492 41.4507 4.90251 41.2498L37.2687 31.3215L104.004 10.8567L136.37 0.928403C136.869 0.775912 137.388 0.698161 137.909 0.697674C139.028 0.700191 140.117 1.06165 141.016 1.7291C141.916 2.39656 142.578 3.33494 142.906 4.4068L156.533 49.0002L156.75 49.6993H157.475L157.262 49.0002Z" fill="#241540"/>
<path d="M43.3113 44.6817C42.6387 44.6812 41.984 44.4648 41.4431 44.0643C40.9023 43.6637 40.5039 43.1 40.3062 42.456L35.8115 27.7482C35.6907 27.3532 35.6488 26.9381 35.6882 26.5268C35.7275 26.1155 35.8474 25.716 36.0409 25.3511C36.2344 24.9862 36.4977 24.6631 36.8159 24.4002C37.1341 24.1372 37.5008 23.9397 37.8952 23.8188L99.2911 4.98869C100.088 4.74521 100.948 4.82825 101.683 5.21958C102.419 5.61091 102.969 6.27855 103.214 7.07597L107.708 21.7839C107.951 22.5818 107.868 23.4436 107.478 24.1803C107.087 24.917 106.421 25.4684 105.625 25.7135L44.2288 44.5436C43.9315 44.635 43.6223 44.6816 43.3113 44.6817Z" fill="#7A5A1F"/>
<path d="M66.8562 15.7127C70.7107 15.7127 73.8354 12.5824 73.8354 8.721C73.8354 4.85956 70.7107 1.72925 66.8562 1.72925C63.0017 1.72925 59.877 4.85956 59.877 8.721C59.877 12.5824 63.0017 15.7127 66.8562 15.7127Z" fill="#A0742A"/>
<path d="M66.857 13.1482C69.2978 13.1482 71.2764 11.166 71.2764 8.72085C71.2764 6.27567 69.2978 4.29346 66.857 4.29346C64.4162 4.29346 62.4375 6.27567 62.4375 8.72085C62.4375 11.166 64.4162 13.1482 66.857 13.1482Z" fill="#F9FAFB"/>
<path d="M210.798 203.518H92.849C92.0626 203.517 91.3086 203.203 90.7526 202.646C90.1965 202.089 89.8837 201.334 89.8828 200.546V58.9632C89.8837 58.1754 90.1965 57.4201 90.7526 56.863C91.3086 56.3059 92.0626 55.9926 92.849 55.9917H210.798C211.584 55.9926 212.338 56.306 212.894 56.863C213.45 57.4201 213.763 58.1754 213.764 58.9632V200.546C213.763 201.334 213.45 202.089 212.894 202.646C212.338 203.203 211.584 203.517 210.798 203.518Z" fill="#241540"/>
<path d="M156.533 49H83.0769C81.5042 49.0022 79.9966 49.6291 78.8845 50.7431C77.7725 51.8572 77.1468 53.3675 77.1445 54.943V197.505L77.8425 197.291V54.943C77.8441 53.5528 78.3962 52.22 79.3774 51.2369C80.3587 50.2539 81.6891 49.7009 83.0769 49.6992H156.75L156.533 49ZM220.568 49H83.0769C81.5042 49.0022 79.9966 49.6291 78.8845 50.7431C77.7725 51.8572 77.1468 53.3675 77.1445 54.943V215.054C77.1468 216.63 77.7725 218.14 78.8845 219.254C79.9966 220.368 81.5042 220.995 83.0769 220.997H220.568C222.14 220.995 223.648 220.368 224.76 219.254C225.872 218.14 226.498 216.63 226.5 215.054V54.943C226.498 53.3675 225.872 51.8572 224.76 50.7431C223.648 49.6291 222.14 49.0022 220.568 49ZM225.802 215.054C225.8 216.444 225.248 217.777 224.267 218.76C223.286 219.743 221.955 220.296 220.568 220.298H83.0769C81.6891 220.296 80.3587 219.743 79.3774 218.76C78.3962 217.777 77.8441 216.444 77.8425 215.054V54.943C77.8441 53.5528 78.3962 52.22 79.3774 51.2369C80.3587 50.2539 81.6891 49.7009 83.0769 49.6992H220.568C221.955 49.7009 223.286 50.2539 224.267 51.2369C225.248 52.22 225.8 53.5528 225.802 54.943V215.054Z" fill="#241540"/>
<path d="M183.928 64.3819H119.719C118.886 64.381 118.088 64.0492 117.499 63.4594C116.91 62.8695 116.579 62.0698 116.578 61.2357V45.8538C116.579 45.0196 116.91 44.2199 117.499 43.6301C118.088 43.0402 118.886 42.7085 119.719 42.7075H183.928C184.76 42.7085 185.559 43.0402 186.147 43.6301C186.736 44.2199 187.067 45.0196 187.068 45.8538V61.2357C187.067 62.0698 186.736 62.8695 186.147 63.4594C185.559 64.0492 184.76 64.381 183.928 64.3819Z" fill="#7A5A1F"/>
<path d="M151.823 43.7562C155.677 43.7562 158.802 40.6259 158.802 36.7645C158.802 32.903 155.677 29.7727 151.823 29.7727C147.968 29.7727 144.844 32.903 144.844 36.7645C144.844 40.6259 147.968 43.7562 151.823 43.7562Z" fill="#A0742A"/>
<path d="M151.821 41.0231C154.169 41.0231 156.072 39.1165 156.072 36.7645C156.072 34.4125 154.169 32.5059 151.821 32.5059C149.474 32.5059 147.57 34.4125 147.57 36.7645C147.57 39.1165 149.474 41.0231 151.821 41.0231Z" fill="#F9FAFB"/>
</svg>

