<svg width="20" height="20" viewBox="0 0 20 20" fill="none" xmlns="http://www.w3.org/2000/svg">
        <path d="M17.1336 8.49058L10.8836 2.24058C10.6492 2.00634 10.3314 1.87476 10 1.87476C9.66863 1.87476 9.35081 2.00634 9.11641 2.24058L2.86641 8.49058C2.74978 8.60635 2.65732 8.74416 2.59442 8.89598C2.53151 9.04781 2.49942 9.21062 2.50001 9.37496V16.875C2.50001 17.0407 2.56586 17.1997 2.68307 17.3169C2.80028 17.4341 2.95925 17.5 3.12501 17.5H16.875C17.0408 17.5 17.1997 17.4341 17.317 17.3169C17.4342 17.1997 17.5 17.0407 17.5 16.875V9.37496C17.5006 9.21062 17.4685 9.04781 17.4056 8.89598C17.3427 8.74416 17.2502 8.60635 17.1336 8.49058ZM16.25 16.25H3.75001V9.37496L10 3.12496L16.25 9.37496V16.25Z" fill="#ffffff" />
    </svg>
