<svg width="12" height="16" viewBox="0 0 12 16" fill="none" xmlns="http://www.w3.org/2000/svg">
<path d="M8.5 12C8.8 11.0031 9.42188 10.1531 10.0375 9.30625C10.2 9.08437 10.3625 8.8625 10.5188 8.6375C11.1375 7.74687 11.5 6.66875 11.5 5.50313C11.5 2.4625 9.0375 0 6 0C2.9625 0 0.5 2.4625 0.5 5.5C0.5 6.66563 0.8625 7.74687 1.48125 8.63437C1.6375 8.85938 1.8 9.08125 1.9625 9.30313C2.58125 10.15 3.20312 11.0031 3.5 11.9969H8.5V12ZM6 16C7.38125 16 8.5 14.8813 8.5 13.5V13H3.5V13.5C3.5 14.8813 4.61875 16 6 16ZM3.5 5.5C3.5 5.775 3.275 6 3 6C2.725 6 2.5 5.775 2.5 5.5C2.5 3.56562 4.06562 2 6 2C6.275 2 6.5 2.225 6.5 2.5C6.5 2.775 6.275 3 6 3C4.61875 3 3.5 4.11875 3.5 5.5Z" fill="#A3A3A3"/>
</svg>

