<svg width="12" height="14" viewBox="0 0 12 14" fill="none" xmlns="http://www.w3.org/2000/svg">
<path d="M6.64805 13.65C8.05078 11.8945 11.25 7.63984 11.25 5.25C11.25 2.35156 8.89844 0 6 0C3.10156 0 0.75 2.35156 0.75 5.25C0.75 7.63984 3.94922 11.8945 5.35195 13.65C5.68828 14.0684 6.31172 14.0684 6.64805 13.65ZM6 3.5C6.46413 3.5 6.90925 3.68437 7.23744 4.01256C7.56563 4.34075 7.75 4.78587 7.75 5.25C7.75 5.71413 7.56563 6.15925 7.23744 6.48744C6.90925 6.81563 6.46413 7 6 7C5.53587 7 5.09075 6.81563 4.76256 6.48744C4.43437 6.15925 4.25 5.71413 4.25 5.25C4.25 4.78587 4.43437 4.34075 4.76256 4.01256C5.09075 3.68437 5.53587 3.5 6 3.5Z" fill="#A3A3A3"/>
</svg>

