

<svg width="12" height="15" viewBox="0 0 12 15" fill="none" xmlns="http://www.w3.org/2000/svg">
<path d="M3.47867 8.33126C3.3693 8.93126 2.93492 11.7281 2.8068 12.5188C2.79742 12.575 2.77555 12.5969 2.71305 12.5969H0.381796C0.144296 12.5969 -0.0275791 12.3906 0.00367093 12.1625L1.83492 0.540632C1.8818 0.240632 2.15055 0.0125069 2.45992 0.0125069C7.2193 0.0125069 7.6193 -0.103118 8.83492 0.368757C10.713 1.09688 10.8849 2.85313 10.2099 4.75313C9.53805 6.70938 7.9443 7.55001 5.8318 7.57501C4.47555 7.59688 3.65992 7.35626 3.47867 8.33126ZM11.1568 3.83438C11.1005 3.79376 11.0787 3.77813 11.063 3.87501C11.0005 4.23126 10.9037 4.57813 10.788 4.92501C9.54117 8.48126 6.08492 8.17188 4.39742 8.17188C4.2068 8.17188 4.0818 8.27501 4.0568 8.46563C3.35055 12.8531 3.20992 13.7688 3.20992 13.7688C3.17867 13.9906 3.3193 14.1719 3.54117 14.1719H5.52555C5.7943 14.1719 6.01617 13.975 6.0693 13.7063C6.09117 13.5375 6.03492 13.8969 6.5193 10.8531C6.66305 10.1656 6.96617 10.2375 7.43492 10.2375C9.65367 10.2375 11.3849 9.33751 11.9005 6.72813C12.1037 5.64063 12.0443 4.49688 11.1568 3.83438Z" fill="white"/>
</svg>

