
<svg width="13" height="14" viewBox="0 0 13 14" fill="none" xmlns="http://www.w3.org/2000/svg">
<path d="M5.125 0.875H1.1875C0.823828 0.875 0.53125 1.16758 0.53125 1.53125V5.46875C0.53125 5.73398 0.689844 5.97461 0.935937 6.07578C1.18203 6.17695 1.46367 6.12227 1.65234 5.93359L2.74609 4.83984L4.90625 7L2.74609 9.16016L1.65234 8.06641C1.46367 7.87773 1.18203 7.82305 0.935937 7.92422C0.689844 8.02539 0.53125 8.26602 0.53125 8.53125V12.4688C0.53125 12.8324 0.823828 13.125 1.1875 13.125H5.125C5.39023 13.125 5.63086 12.9664 5.73203 12.7203C5.8332 12.4742 5.77852 12.1926 5.58984 12.0039L4.49609 10.9102L6.65625 8.75L8.81641 10.9102L7.72266 12.0039C7.53398 12.1926 7.4793 12.4742 7.58047 12.7203C7.68164 12.9664 7.92227 13.125 8.1875 13.125H12.125C12.4887 13.125 12.7812 12.8324 12.7812 12.4688V8.53125C12.7812 8.26602 12.6227 8.02539 12.3766 7.92422C12.1305 7.82305 11.8488 7.87773 11.6602 8.06641L10.5664 9.16016L8.40625 7L10.5664 4.83984L11.6602 5.93359C11.8488 6.12227 12.1305 6.17695 12.3766 6.07578C12.6227 5.97461 12.7812 5.73398 12.7812 5.46875V1.53125C12.7812 1.16758 12.4887 0.875 12.125 0.875H8.1875C7.92227 0.875 7.68164 1.03359 7.58047 1.27969C7.4793 1.52578 7.53398 1.80742 7.72266 1.99609L8.81641 3.08984L6.65625 5.25L4.49609 3.08984L5.58984 1.99609C5.77852 1.80742 5.8332 1.52578 5.73203 1.27969C5.63086 1.03359 5.39023 0.875 5.125 0.875Z" fill="#A3A3A3"/>
</svg>

